<svg width="36" height="23" viewBox="0 0 36 23" fill="none" xmlns="http://www.w3.org/2000/svg">
<rect x="28" y="9" width="8" height="2" rx="1" fill="white"/>
<path fill-rule="evenodd" clip-rule="evenodd" d="M23 1C23 0.447715 23.4477 0 24 0H27C27.5523 0 28 0.447715 28 1C28 1.55228 27.5523 2 27 2L25.4227 2L19.5692 12.1385L21 15.0001H23C25.2091 15.0001 27 16.7909 27 19.0001C27 21.2092 25.2091 23.0001 23 23.0001C20.7909 23.0001 19 21.2092 19 19.0001C19 18.2715 19.1948 17.5884 19.5351 17.0001H14.4649C14.8052 17.5884 15 18.2715 15 19.0001C15 21.2092 13.2091 23.0001 11 23.0001C8.79086 23.0001 7 21.2092 7 19.0001C7 16.7909 8.79086 15.0001 11 15.0001H18.7639L17.7639 13L7.01932 13C6.97953 13.0007 6.93981 12.9991 6.90038 12.9951C6.76038 12.9813 6.62888 12.9385 6.51189 12.873C6.3969 12.8088 6.29331 12.7212 6.209 12.6119C6.18394 12.5795 6.16081 12.5456 6.1398 12.5103L0.85728 3.98992C0.372599 3.92066 0 3.50386 0 3.00003C0 2.44775 0.447715 2.00003 1 2.00003L23 2.00003C23.0371 2.00003 23.0737 2.00205 23.1098 2.00599L23.2862 1.7004C23.1092 1.51999 23 1.27274 23 1ZM17.9171 11L7.55665 11L3.21675 4.00003L21.9585 4.00003L17.9171 11ZM11 17.0001C9.89543 17.0001 9 17.8955 9 19.0001C9 20.1046 9.89543 21.0001 11 21.0001C12.1046 21.0001 13 20.1046 13 19.0001C13 17.8955 12.1046 17.0001 11 17.0001ZM23 17.0001C21.8954 17.0001 21 17.8955 21 19.0001C21 20.1046 21.8954 21.0001 23 21.0001C24.1046 21.0001 25 20.1046 25 19.0001C25 17.8955 24.1046 17.0001 23 17.0001Z" fill="white"/>
<rect x="33" y="6" width="8" height="2" rx="1" transform="rotate(90 33 6)" fill="white"/>
</svg>
